<?xml version="1.0" encoding="utf-8"?>
<!-- Generator: Adobe Illustrator 23.0.3, SVG Export Plug-In . SVG Version: 6.00 Build 0)  -->
<svg version="1.1" id="Capa_1" xmlns="http://www.w3.org/2000/svg" xmlns:xlink="http://www.w3.org/1999/xlink" x="0px" y="0px"
	 viewBox="0 0 116.5 116.5" style="enable-background:new 0 0 116.5 116.5;" xml:space="preserve">
<style type="text/css">
	.st0{fill:#FF8800;}
	.st1{fill:#FFE68E;}
	.st2{fill:#6D3A0B;}
</style>
<g>
	<path class="st0" d="M20.3,46.1c-2.5,4.2-4.7,8.5-6,13.1H15c1-1.5,2.2-2.9,3.3-4.2c-0.5,1.4-0.9,2.8-1.4,4.2h93.8
		c0.9-3.5,1.4-7.1,1.6-10.8c-0.6,2.3-1.9,4.6-3.2,6.6c1-6,1-12.3,0-18.2c-0.3,2-0.6,4.3-1.6,6.3c-1-6.3-1.9-12.6-4.9-18.2
		c0.3,2,0.6,4.3,0,6.3c-1.6-6.3-5.5-11.6-9.4-16.9c0.3,2,1.3,3.6,1.6,5.6C91,14.5,86.1,9.9,80.6,5.9c1.3,1.7,2.3,3.3,3.2,5
		c-5.5-4-11.4-7.3-17.8-9.6c1.6,1.7,3.6,2.7,5.2,4.3c-6.5-2.7-13-4-19.8-4.6c2.6,0.3,4.9,2,7.5,3C52,2.6,45.2,3.3,38.7,4.3
		c3.2,0,6.2,0.7,9.4,1c-6.5,0.3-13,1.7-19.1,4c3.6-0.3,7.5-1,11-1c-6.2,1.7-12,3.6-17.5,7c3.9-1.7,7.8-2.7,12-3
		c-5.5,2-10.7,4.6-15.6,8.3c3.9-2.3,8.1-3.3,12.3-4.3c-5.2,2.3-9.7,5.6-14.3,9c3.9-2,8.1-4,12.3-5.3c-4.9,2.7-9.1,6.3-13,9.9
		c3.6-2.7,7.5-4.6,11.7-6c-4.5,2.7-8.4,6.3-12,10.3c3.2-2.7,6.8-4.6,10.4-6.3c-3.9,3.3-7.8,7.3-11,11.3c2.6-2.7,6.2-4.3,9.4-6.3
		c-3.9,3.6-7.5,7.6-10.1,12.6c2.3-2.7,4.9-5,7.8-6.6c-3.2,4.3-6.5,9-8.8,13.9C15.7,50,17.7,47.7,20.3,46.1z"/>
	<ellipse class="st0" cx="19.3" cy="21.5" rx="19.3" ry="19.7"/>
	<ellipse class="st1" cx="19.3" cy="21.5" rx="11.9" ry="12.2"/>
	<ellipse class="st0" cx="94.7" cy="21.5" rx="19.3" ry="19.7"/>
	<ellipse class="st1" cx="94.7" cy="21.5" rx="11.9" ry="12.2"/>
	<ellipse class="st0" cx="59.3" cy="58.2" rx="57.3" ry="47.8"/>
	<path class="st1" d="M85.3,106.8c5.2-11-9-39.9-26-41.2v0c-1,0-0.4,0-0.5,0c-0.1,0-0.5,0-0.5,0v0c-18,1.3-31,30.2-25.7,41.2
		C38.2,118.5,79.8,118.5,85.3,106.8z"/>
	<path d="M75.5,81.7c0,3.4-7.3,13.6-16.3,13.6S43,85.1,43,81.7s7.3-22.5,16.3-22.5C68.2,59.2,75.5,78.3,75.5,81.7z"/>
	<path class="st2" d="M75.5,82c0,3-32.5,3-32.5,0c0-4,7.3-22.5,16.3-22.5C68.2,59.5,75.5,78,75.5,82z"/>
	<ellipse class="st2" cx="39.6" cy="66.1" rx="4.8" ry="4.9"/>
	<ellipse class="st2" cx="79.1" cy="66.1" rx="4.8" ry="4.9"/>
	<path class="st2" d="M14.8,28.1l19,9.1l-5.2-19.4C28.5,17.8,20,21.8,14.8,28.1z"/>
	<path class="st2" d="M101.5,25.9L82.8,36.1l4.1-19.8C86.9,16.3,96,19.9,101.5,25.9z"/>
	<path class="st2" d="M112.6,75.7l-21.8-2l11.6,16C102.4,89.7,109.1,83.4,112.6,75.7z"/>
	<path class="st2" d="M113.4,42.7L97.2,55.2l19.3,4.5C116.5,59.7,117.1,51.7,113.4,42.7z"/>
	<path class="st2" d="M2.1,60.9l20.6-9.6l-18-7.6C4.7,43.7,1.4,51.1,2.1,60.9z"/>
	<path class="st2" d="M6.1,76l21.4-2.2L16.4,89.9C16.4,89.9,8.8,83.8,6.1,76z"/>
</g>
</svg>
