<svg id="Layer_1" data-name="Layer 1" xmlns="http://www.w3.org/2000/svg" width="16" height="16" viewBox="0 0 16 16"><defs><style>.cls-1{fill:#930;}</style></defs><title>tiger</title><path class="cls-1" d="M4.76,11.49a7.18,7.18,0,0,1,1.5,2.7A11.67,11.67,0,0,1,6.59,16c.1-.2.72-1.93,1-2.59s.3-1.1.5-1.6.63-.63,1.31-.72,1.8,0,2-.25.91-1.4.5-1.73a4.84,4.84,0,0,1-.7.1c-1.23.17-2.34.29-2.72-.15s-.28-.84.82-1.14a1.9,1.9,0,0,1,1.53.1l-.06.79a1.45,1.45,0,0,1,.47-.38c.36-.21.68-.63,1.21-.68s.88-.54,1-1.08a.53.53,0,0,0-.2-.45c-.3-.21.33,0,.33-.3,0-.1.1-.1.08-.27A3.61,3.61,0,0,0,13.06,5c-.6-.38-1.22-.72-1.83-1.09a1,1,0,0,1-.41-.3,2.36,2.36,0,0,0-1.4-1.2,8.63,8.63,0,0,0-2-.5A4.92,4.92,0,0,0,6,2a3.11,3.11,0,0,0-.37.08c0-.1,0-.21,0-.37C5.6,1.33,6,.34,5.24.53c-.55.14-1.07,1.09-1.79,2L2,4.18A4,4,0,0,0,1.16,6.4,3.37,3.37,0,0,0,2.26,9C2.76,9.69,4,10.49,4.76,11.49ZM8,3.4a3,3,0,0,1,1.5.6c.2.2.2.7-.1.8a1.1,1.1,0,0,1-.8,0,3.59,3.59,0,0,1-1-.7,2.88,2.88,0,0,1-.4-.6A2.77,2.77,0,0,1,8,3.4Zm-2.26.05c0,.23-.09.44-.13.64a1.75,1.75,0,0,0,.3,1.61,5,5,0,0,1,.7,1.4,5.51,5.51,0,0,1,.1,1.2,5.58,5.58,0,0,0-1.3-2.1C4.48,5.17,4.48,4.09,5.69,3.45ZM2.76,6a11.43,11.43,0,0,1,.6-1.5,4.24,4.24,0,0,0,1.2,3.8c.86.86,1.5,1,1.9,2a10.63,10.63,0,0,1,.3,1.3,5.5,5.5,0,0,0-2.1-2.3C3.26,8.2,2.56,6.9,2.76,6Z"/></svg>